<?xml version="1.0" encoding="UTF-8"?>
<svg id="Warstwa_1" xmlns="http://www.w3.org/2000/svg" version="1.1" viewBox="0 0 128 128">
  <!-- Generator: Adobe Illustrator 29.8.2, SVG Export Plug-In . SVG Version: 2.1.1 Build 3)  -->
  <defs>
    <style>
      .st0 {
        fill: #fff;
      }
    </style>
  </defs>
  <g>
    <path class="st0" d="M56.4,115.82H12.39l3.77-58.22,38.47,1.99,1.77,56.23ZM20.32,63.76v44.13h32.14v-44.13H20.32Z"/>
    <path class="st0" d="M12.33,11.8h44.13v32.14H12.33V11.8ZM52.39,19.9l-32.01-.04v20.02s28.24-1.78,28.24-1.78l3.77-18.2Z"/>
  </g>
  <g>
    <path class="st0" d="M116.34,83.81l-3.76,30.25-40.24,1.77v-32.02s44,0,44,0ZM108.35,87.81l-28.24,1.78-3.77,18.2,32.01.04v-20.02Z"/>
    <path class="st0" d="M72.34,11.86l42.24,3.77-2,54.45-38.47-1.99-1.77-56.23ZM76.27,19.79v44.13h32.14V19.79h-32.14Z"/>
  </g>
</svg>